<?xml version="1.0" encoding="UTF-8" standalone="no"?>
<svg width="67px" height="18px" viewBox="0 0 67 18" version="1.1" xmlns="http://www.w3.org/2000/svg" xmlns:xlink="http://www.w3.org/1999/xlink">
    <!-- Generator: Sketch 40.3 (33839) - http://www.bohemiancoding.com/sketch -->
    <title>mapp-v2_transparent</title>
    <desc>Created with Sketch.</desc>
    <defs>
        <polygon id="path-1" points="0.0113684211 17.4136204 66.3157895 17.4136204 66.3157895 0.153504849 0.0113684211 0.153504849"></polygon>
    </defs>
    <g id="Page-1" stroke="none" stroke-width="1" fill="none" fill-rule="evenodd">
        <g id="Group-10" transform="translate(-64.000000, -100.000000)">
            <g id="Group-4-Copy" transform="translate(42.000000, 89.000000)">
                <g id="mapp-v2_transparent" transform="translate(22.000000, 11.000000)">
                    <path d="M35.6257895,2.12181179 C35.0607789,1.56552233 34.3902316,1.12147501 33.6321474,0.801405094 C32.8744421,0.484363636 32.0602737,0.323476926 31.2121895,0.323476926 C30.3588,0.323476926 29.5397053,0.489095598 28.7778316,0.815222423 C28.0142526,1.14191708 27.3399158,1.59448193 26.7737684,2.15966748 C26.2066737,2.72447447 25.7528842,3.39243824 25.4256632,4.14444165 C25.0988211,4.89190237 24.9332211,5.70504273 24.9332211,6.56152787 C24.9332211,7.41763444 25.0978737,8.23399253 25.4226316,8.98788873 C25.7481474,9.74784184 26.2011789,10.4205376 26.7686526,10.9870481 C27.3365053,11.5541264 28.0097053,12.0063127 28.7696842,12.3314931 C29.5308,12.6578092 30.348,12.8232386 31.1987368,12.8232386 L31.3563789,12.8232386 L31.3563789,10.6686817 L31.1987368,10.6686817 C30.6324,10.6686817 30.0965684,10.5583323 29.6065895,10.3412299 C29.1130105,10.1222347 28.6747579,9.82431034 28.3039579,9.45616369 C27.9346737,9.08707065 27.6366316,8.65097303 27.4177895,8.15998465 C27.1991368,7.67051049 27.0882947,7.13636662 27.0882947,6.57231674 C27.0882947,6.01091676 27.1991368,5.47393371 27.4183579,4.97537418 C27.6354947,4.47776105 27.9335368,4.0374993 28.3035789,3.66783843 C28.6766526,3.29723116 29.1141474,3.00422807 29.6043158,2.79602174 C30.5992421,2.37128083 31.7974737,2.37203794 32.8079368,2.79677885 C33.3051158,3.00347096 33.7471579,3.29647405 34.1204211,3.66745987 C34.4897053,4.03617436 34.7837684,4.47567899 34.9942737,4.9734814 C35.2053474,5.47734072 35.3122105,6.01621656 35.3122105,6.57458808 L35.3122105,12.8232386 L37.4672842,12.8232386 L37.4672842,6.56152787 C37.4672842,5.69501097 37.3014947,4.86994607 36.9752211,4.10828946 C36.6489474,3.35079697 36.1949684,2.68264393 35.6257895,2.12181179" id="Fill-1" fill="#FFFFFF"></path>
                    <path d="M50.0693684,2.11310498 C49.5102316,1.54621592 48.8381684,1.08910839 48.0709895,0.754653309 C47.3032421,0.421144623 46.4722105,0.252118938 45.6013895,0.252118938 C44.73,0.252118938 43.9040842,0.421333901 43.1469474,0.754842587 C42.3882947,1.08778344 41.7156632,1.54470169 41.1472421,2.11234786 C40.5803368,2.67885836 40.1274947,3.35041841 39.8012211,4.10866801 C39.4747579,4.86937823 39.3091579,5.68649344 39.3091579,6.53786806 L39.3091579,17.4136204 L41.4665053,17.4136204 L41.4665053,6.53786806 C41.4665053,5.97173611 41.5733684,5.43115677 41.7842526,4.93108302 C41.9964632,4.42873793 42.2909053,3.98355494 42.6598105,3.60745859 C43.0247368,3.23287648 43.4660211,2.93495215 43.9719158,2.72201385 C44.4700421,2.51153618 45.0181895,2.4049724 45.6013895,2.4049724 C46.1756842,2.4049724 46.7020421,2.508697 47.2098316,2.72201385 C47.7138316,2.93438431 48.1590947,3.2326872 48.5340632,3.6091621 C48.9097895,3.98204071 49.2082105,4.42684514 49.4209895,4.93108302 C49.6316842,5.43058893 49.7383579,5.97116828 49.7383579,6.53786806 C49.7383579,7.1206565 49.6316842,7.66937482 49.4209895,8.16812362 C49.2074526,8.67255078 48.9094105,9.11243397 48.5344421,9.47698433 C48.1626947,9.84304891 47.7170526,10.1369984 47.2096421,10.3508831 C46.6990105,10.566282 46.1728421,10.670953 45.6013895,10.670953 L45.4437474,10.670953 L45.4437474,12.8239957 L45.6013895,12.8239957 C46.4697474,12.8239957 47.3002105,12.6585663 48.0700421,12.3322502 C48.8379789,12.0057449 49.5108,11.55318 50.0691789,10.9870481 C50.6300211,10.4188341 51.0790737,9.74651689 51.4042105,8.98883512 C51.7287789,8.23437109 51.8934316,7.40968474 51.8934316,6.53786806 C51.8934316,5.68308643 51.7287789,4.86597122 51.4042105,4.10847874 C51.0785053,3.35174336 50.6292632,2.68056187 50.0693684,2.11310498" id="Fill-2" fill="#FFFFFF"></path>
                    <g id="Group-6">
                        <mask id="mask-2" fill="white">
                            <use xlink:href="#path-1"></use>
                        </mask>
                        <g id="Clip-4"></g>
                        <path d="M65.8265684,4.00986465 C65.5010526,3.25369711 65.052,2.58213705 64.4919158,2.01449089 C63.9327789,1.44741255 63.2603368,0.990305019 62.4933474,0.656039219 C61.7254105,0.322530534 60.8945684,0.153504849 60.0235579,0.153504849 C59.1523579,0.153504849 58.3264421,0.322719812 57.5693053,0.656039219 C56.8106526,0.989169348 56.1378316,1.44589833 55.5697895,2.01373377 C55.0028842,2.58005499 54.5498526,3.25161505 54.2233895,4.01005392 C53.8971158,4.77095342 53.7315158,5.58806863 53.7315158,6.43925397 L53.7315158,17.4136204 L55.8888632,17.4136204 L55.8888632,6.43925397 C55.8888632,5.87293275 55.9957263,5.33216412 56.2068,4.83227965 C56.4184421,4.3305024 56.7128842,3.88531941 57.0821684,3.50865523 C57.4472842,3.13407311 57.8885684,2.83633806 58.3942737,2.62339976 C58.8922105,2.41292209 59.4405474,2.30635831 60.0235579,2.30635831 C60.5982316,2.30635831 61.1244,2.41008291 61.6321895,2.62339976 C62.1361895,2.83577022 62.5814526,3.13407311 62.9564211,3.51054801 C63.3323368,3.8836159 63.6307579,4.32823105 63.8433474,4.83227965 C64.0542316,5.33216412 64.1612842,5.87293275 64.1612842,6.43925397 C64.1612842,7.02147458 64.0542316,7.5701929 63.8433474,8.06950953 C63.6296211,8.57393669 63.3315789,9.01381988 62.9568,9.37818096 C62.5852421,9.74443482 62.1394105,10.038195 61.632,10.252269 C61.1215579,10.4676679 60.5952,10.5723389 60.0235579,10.5723389 L59.8661053,10.5723389 L59.8661053,12.7253816 L60.0235579,12.7253816 C60.8919158,12.7253816 61.7225684,12.5599522 62.4924,12.2336361 C63.2603368,11.90732 63.9329684,11.4545659 64.4921053,10.888434 C65.0527579,10.3198414 65.5018105,9.64752424 65.8265684,8.89022103 C66.1511368,8.13613556 66.3157895,7.31125993 66.3157895,6.43925397 C66.3157895,5.58428306 66.1511368,4.76697858 65.8265684,4.00986465" id="Fill-3" fill="#FFFFFF" mask="url(#mask-2)"></path>
                        <path d="M22.6095158,4.09901481 L22.6093263,4.09901481 C22.2771789,3.34549717 21.8199789,2.67526207 21.2502316,2.10666951 C20.6804842,1.53978045 20.0038737,1.08475498 19.2395368,0.75446403 C18.4719789,0.421144623 17.6418947,0.252118938 16.7725895,0.252118938 C15.6363158,0.252118938 14.5892842,0.526951295 13.6604842,1.06904487 C12.8042526,1.57044357 12.0950526,2.22326505 11.5489895,3.01160993 C11.0260421,2.22212938 10.3213895,1.56911862 9.45151579,1.06828775 C8.50698947,0.526762016 7.45294737,0.252118938 6.31875789,0.252118938 C5.44888421,0.252118938 4.6224,0.418494724 3.86204211,0.746325055 C3.10244211,1.07737312 2.42981053,1.52937014 1.86252632,2.09058084 C1.29827368,2.6512237 0.841831579,3.32145881 0.505894737,4.08311542 C0.199894737,4.77890312 0.0320210526,5.53185292 0.00606315789,6.32379409 L0,12.8236172 L2.15469474,12.8236172 L2.15734737,6.53786806 C2.15734737,5.95299755 2.2644,5.40465778 2.47547368,4.90723393 C2.68616842,4.4069709 2.9844,3.96595204 3.36183158,3.59648044 C3.73831579,3.22795524 4.18395789,2.9336272 4.68682105,2.72201385 C5.18437895,2.51115762 5.73347368,2.40440456 6.31875789,2.40440456 C6.90176842,2.40440456 7.45086316,2.51115762 7.95088421,2.72220313 C8.45298947,2.93438431 8.89408421,3.22814451 9.26128421,3.59496621 C9.63094737,3.96689843 9.9252,4.40848513 10.1362737,4.90780177 C10.3471579,5.40465778 10.4538316,5.95318682 10.4538316,6.53786806 L10.4538316,12.8474663 L12.6113684,12.8474663 L12.6113684,6.53786806 C12.6113684,5.95564744 12.7224,5.40768624 12.9418105,4.90912672 C13.1595158,4.40981008 13.4624842,3.9680341 13.8414316,3.596859 C14.2217053,3.2273874 14.6652632,2.93287008 15.1601684,2.72182457 C15.6518526,2.51115762 16.1899579,2.40440456 16.7593263,2.40440456 C17.3457474,2.40440456 17.8969263,2.51115762 18.3969474,2.72220313 C18.8973474,2.9326808 19.3443158,3.22681957 19.7245895,3.59648044 C20.1046737,3.96860194 20.4036632,4.40943152 20.6136,4.90761249 C20.8263789,5.40901119 20.934,5.95754023 20.934,6.53786806 L20.934,12.8474663 L23.0888842,12.8474663 L23.0886947,6.54524992 C23.0708842,5.57974038 22.9185474,4.80237365 22.6095158,4.09901481" id="Fill-5" fill="#FFFFFF" mask="url(#mask-2)"></path>
                    </g>
                </g>
            </g>
        </g>
    </g>
</svg>